<?xml version="1.0" encoding="UTF-8" standalone="no"?>
<!DOCTYPE svg PUBLIC "-//W3C//DTD SVG 1.1//EN" "http://www.w3.org/Graphics/SVG/1.1/DTD/svg11.dtd">
<svg width="100%" height="100%" viewBox="0 0 1798 623" version="1.1" xmlns="http://www.w3.org/2000/svg" xmlns:xlink="http://www.w3.org/1999/xlink" xml:space="preserve" xmlns:serif="http://www.serif.com/" style="fill-rule:evenodd;clip-rule:evenodd;stroke-linejoin:round;stroke-miterlimit:2;">
    <path d="M172,70.1L172,15.1L13.4,15.1L13.4,610.9L172,610.9L172,363C191.2,399.4 229.1,423 282.7,423C375.5,423 449.1,346.6 449.1,216.6C449.1,86.6 375.5,10.1 282.7,10.1C229.1,10.1 191.2,33.7 172,70.1ZM288.4,216.6C288.4,260.9 262.7,284.4 229.8,284.4C197,284.4 171.2,260.9 171.2,216.6C171.2,172.3 197,148.7 229.8,148.7C262.7,148.7 288.4,172.3 288.4,216.6Z" style="fill:rgb(104,160,99);fill-rule:nonzero;"/>
    <path d="M267,276C245.9,276 228.9,258.9 228.9,237.9C228.9,216.8 245.9,199.8 267,199.8C288.1,199.8 305.1,216.8 305.1,237.9C305.1,258.9 288.1,276 267,276Z" style="fill:rgb(104,160,99);fill-rule:nonzero;"/>
    <path d="M474.9,217.6C474.9,347.6 548.5,424 641.4,424C694.9,424 733.5,400.4 752.8,364L752.8,419L910.7,419L910.7,16.1L752.8,16.1L752.8,71.1C733.5,34.7 694.9,11.1 641.4,11.1C548.5,11.1 474.9,87.6 474.9,217.6ZM752.8,217.6C752.8,261.9 727.1,285.4 694.2,285.4C661.4,285.4 635.6,261.9 635.6,217.6C635.6,173.3 661.4,149.7 694.2,149.7C727.1,149.7 752.8,173.3 752.8,217.6Z" style="fill:rgb(104,160,99);fill-rule:nonzero;"/>
    <path d="M734,275.8C713,275.8 695.9,258.8 695.9,237.7C695.9,216.6 713,199.6 734,199.6C755.1,199.6 772.1,216.6 772.1,237.7C772.1,258.8 755.1,275.8 734,275.8Z" style="fill:rgb(104,160,99);fill-rule:nonzero;"/>
    <path d="M935.2,217.6C935.2,346.1 1020.2,424 1140.9,424C1244.5,424 1322.4,362.6 1341.6,256.8L1173.8,256.8C1168.1,276.1 1157.4,288.3 1137.4,288.3C1113.1,288.3 1095.9,266.1 1095.9,217.6C1095.9,169 1113.1,146.8 1137.4,146.8C1157.4,146.8 1168.1,159 1173.8,178.3L1341.6,178.3C1322.4,72.6 1244.5,11.1 1140.9,11.1C1020.2,11.1 935.2,89 935.2,217.6Z" style="fill:rgb(104,160,99);fill-rule:nonzero;"/>
    <path d="M1211.4,137.8C1190.3,137.8 1173.3,120.8 1173.3,99.7C1173.3,78.7 1190.3,61.6 1211.4,61.6C1232.5,61.6 1249.5,78.7 1249.5,99.7C1249.5,120.8 1232.5,137.8 1211.4,137.8Z" style="fill:white;fill-rule:nonzero;"/>
    <path d="M1213.8,123.6C1201.9,123.6 1192.4,114 1192.4,102.1C1192.4,90.3 1201.9,80.7 1213.8,80.7C1225.6,80.7 1235.2,90.3 1235.2,102.1C1235.2,114 1225.6,123.6 1213.8,123.6Z" style="fill-rule:nonzero;"/>
    <path d="M977.7,267.6L974,252.8C974,252.8 1318.29,186.101 1474.32,184.957C1485.65,183.253 1486.68,220.611 1459.84,219.545C1331.71,214.458 977.7,267.6 977.7,267.6Z" style="fill:rgb(104,160,99);fill-rule:nonzero;"/>
    <g transform="matrix(1,0,0,1,-2.77083,128.305)">
        <path d="M1747.4,90.9L1690.9,129C1686.83,131.6 1684.2,135.367 1683,140.3C1681.87,144.9 1682.4,149.167 1684.6,153.1C1686.73,156.967 1689.9,159.4 1694.1,160.4C1698.63,161.533 1702.9,160.7 1706.9,157.9L1746.8,131.1C1747.47,130.633 1747.87,130.067 1748,129.4C1748.2,128.533 1747.73,127.033 1746.6,124.9C1745.4,122.767 1744.4,121.6 1743.6,121.4C1743,121.267 1742.37,121.4 1741.7,121.8L1701.8,148.7C1700.07,149.767 1698.37,150.1 1696.7,149.7C1695.23,149.3 1694.13,148.467 1693.4,147.2C1692.67,145.867 1692.5,144.4 1692.9,142.8C1693.37,140.867 1694.4,139.333 1696,138.2L1752.5,100.1C1756.63,97.367 1760.8,96.5 1765,97.5C1768.27,98.3 1770.7,100.133 1772.3,103C1773.9,105.933 1774.27,109.167 1773.4,112.7C1772.27,117.3 1769.67,121 1765.6,123.8L1690,174.6C1685.07,177.867 1679.9,178.867 1674.5,177.6C1669.03,176.267 1664.87,173.1 1662,168.1C1659.13,163.1 1658.43,157.6 1659.9,151.6C1661.3,145.933 1664.5,141.367 1669.5,137.9L1728.6,98.2C1729.2,97.733 1729.6,97.133 1729.8,96.4C1730,95.533 1729.53,94.067 1728.4,92C1727.27,89.867 1726.27,88.7 1725.4,88.5C1724.8,88.367 1724.17,88.533 1723.5,89L1664.6,128.6C1657.2,133.6 1652.43,140.533 1650.3,149.4C1648.17,158.333 1649.2,166.567 1653.4,174.1C1657.6,181.633 1663.8,186.4 1672,188.4C1680,190.333 1687.73,188.833 1695.2,183.9L1770.7,133C1777.17,128.667 1781.33,122.7 1783.2,115.1C1784.8,108.567 1784.1,102.6 1781.1,97.2C1778.1,91.733 1773.6,88.3 1767.6,86.9C1760.53,85.167 1753.8,86.5 1747.4,90.9Z" style="fill:rgb(104,160,99);fill-rule:nonzero;"/>
    </g>
    <g id="js" transform="matrix(0.823053,-0.0108161,0.0108161,0.823053,340.007,-93.989)">
        <path d="M1394.97,356.574C1403.57,360.787 1405.93,365.105 1404.95,372.598C1406.42,375.131 1395.67,399.381 1394.36,402.696C1387.2,420.841 1393.23,405.039 1378.3,448C1375.83,452.867 1371.6,461.467 1365.6,473.8C1363.13,478.8 1360.7,483.667 1358.3,488.4C1368.6,482.1 1385,473.9 1387.8,472.1L1393.5,468.3C1409.77,457.567 1422.33,448.467 1431.2,441C1437,436.067 1443.17,429.967 1449.7,422.7C1456.37,415.5 1465.2,405.6 1476.2,393C1483.2,384.933 1493.07,382.9 1505.8,386.9C1511.73,388.767 1515.7,390.6 1517.7,392.4C1519.7,394.2 1520.33,396.267 1519.6,398.6C1519.2,399.933 1518.13,401.833 1516.4,404.3C1514.67,406.767 1512.63,409.133 1510.3,411.4C1504.03,417.867 1500.07,423.733 1498.4,429C1497.4,432.2 1497.37,436.033 1498.3,440.5C1499.37,445.1 1501.33,451 1504.2,458.2C1508.2,469.267 1513.75,496.827 1515.09,504.227C1516.01,508.285 1587.33,511.077 1641.92,507.855C1685.97,505.255 1678.55,506.441 1687.83,508.459C1716.39,514.662 1707.48,538.872 1695.51,538.832C1686.6,538.802 1654.42,542.259 1644.45,541.716C1640.48,541.5 1665.56,541.581 1610.15,541.265C1536.32,540.845 1451.25,546.052 1445.8,544.3C1434.73,540.833 1431.3,515.553 1446.31,505.285C1467.87,508.598 1465.6,502.8 1467.4,503.6C1468.93,498 1469.3,492.4 1468.5,486.8C1467.97,481.267 1466.7,475.733 1464.7,470.2C1462.77,464.467 1460.87,459.433 1459,455.1C1448.47,465.5 1438.6,473.8 1429.4,480C1420.4,486.2 1411.6,493.5 1400.9,496.9C1362.5,509.1 1348.8,514.2 1343.7,516C1326.17,547.733 1308.87,573.367 1291.8,592.9C1267.67,620.233 1244.17,630.267 1221.3,623C1210.23,619.533 1202.37,613.433 1197.7,604.7C1193.23,595.833 1192.73,586 1196.2,575.2C1200.93,560.133 1211.83,545.967 1228.9,532.7C1246.03,519.233 1274.67,505.067 1314.8,490.2L1322.2,474.7C1331.6,455.3 1356.2,409.362 1334.78,396.171C1310.54,381.239 1312.27,386.1 1322.2,364.3C1325,358.433 1368.62,356.153 1381.59,356.399M1234.6,593.3C1240.07,595.033 1248.07,590.7 1258.6,580.3C1269.13,569.833 1281.67,551.633 1296.2,525.7C1275.73,534.367 1260.1,543.167 1249.3,552.1C1238.83,560.9 1232.27,569.567 1229.6,578.1C1226.93,586.367 1228.6,591.433 1234.6,593.3Z" style="fill:rgb(104,160,99);"/>
    </g>
</svg>
